<svg xmlns="http://www.w3.org/2000/svg" width="852" height="1080" viewBox="0 0 852 1080" fill="none">
  <path fill-rule="evenodd" clip-rule="evenodd" d="M469.218 -52.8467C550.302 -134.976 732.732 -220.15 772.011 -228.112C789.09 -231.57 825.246 -239.054 861.888 -246.639C898.937 -254.307 936.484 -262.079 955.309 -265.896C1070.46 -289.222 1208.85 -298.802 1324.56 -275.362C1354.82 -269.23 1384.74 -264.25 1414.3 -259.33C1518.51 -241.984 1618.24 -225.384 1712.5 -161.741C1831.35 -81.4786 1878.16 20.3012 1931.66 136.602C1943.66 162.695 1956 189.518 1969.56 216.994C2153.59 589.78 2282.15 1215.17 1894.78 1509.44C1784.63 1593.11 1662.03 1595.1 1538.37 1597.11C1479.39 1598.07 1420.17 1599.03 1361.95 1608.86C1159.33 1643.07 896.561 1656.45 688.889 1627.8C520.973 1604.63 293.78 1436.89 128.015 1244.33C70.4414 1177.44 38.809 1048.88 18.0948 964.689C17.3285 961.575 16.5771 958.521 15.84 955.534C-71.5706 601.398 232.165 187.248 469.218 -52.8467Z" fill="#E5D7CE"/>
</svg>