<svg width="1916" height="902" viewBox="0 0 1916 902" fill="none" xmlns="http://www.w3.org/2000/svg">
<g style="mix-blend-mode:overlay" opacity="0.5">
<mask id="mask0_3_2785" style="mask-type:alpha" maskUnits="userSpaceOnUse" x="0" y="-9" width="1936" height="911">
<rect x="0.777588" y="-8.69429" width="1935.2" height="910.631" rx="10" fill="#097CCD"/>
<mask id="mask1_3_2785" style="mask-type:alpha" maskUnits="userSpaceOnUse" x="0" y="-9" width="1936" height="911">
<rect x="0.777649" y="-8.69437" width="1935.2" height="910.631" rx="10" fill="#097CCD"/>
</mask>
<g mask="url(#mask1_3_2785)">
<path d="M1572.15 0.13327C1572.15 76.7292 969.908 238.444 613.147 238.444C257.066 238.444 -11.8946 1005.14 -351.153 530.276C-352.357 528.592 -353.046 527.16 -353.203 525.096C-360.666 427.193 -755.406 -831.184 674.14 -59.73C675.601 -58.9416 677.312 -58.4672 678.972 -58.4676C1035.74 -58.5505 1572.15 -76.2844 1572.15 0.13327Z" fill="#EE8DB7"/>
</g>
<mask id="mask2_3_2785" style="mask-type:alpha" maskUnits="userSpaceOnUse" x="367" y="-9" width="1569" height="911">
<rect x="367.804" y="-8.69437" width="1568.18" height="910.631" rx="10" fill="#40AAF4"/>
</mask>
<g mask="url(#mask2_3_2785)">
<path d="M769.584 700.822C769.584 643.461 1220.59 522.356 1487.76 522.356C1754.25 522.356 1955.58 -51.071 2209.42 303.128C2210.62 304.81 2211.31 306.346 2211.5 308.407C2218.87 386.908 2509.17 1321.22 1442.67 745.969C1441.21 745.18 1439.5 744.706 1437.84 744.707C1170.66 744.79 769.584 758.005 769.584 700.822Z" fill="#5FA8FF" fill-opacity="0.63"/>
</g>
</mask>
<g mask="url(#mask0_3_2785)">
<path d="M2390.56 -394.2H-574.484V1511.14H2390.56V-394.2Z" fill="url(#paint0_linear_3_2785)"/>
<path style="mix-blend-mode:screen" d="M-974.906 952.421C-939.14 891.132 -820.39 863.34 -748.591 864.839C-658.432 866.725 -568.509 895.705 -504.02 950.509C-368.495 1065.68 -352.661 1253.83 -275.956 1395.01C-194.906 1544.19 -17.3519 1638.99 168.853 1665.91C282.103 1682.28 407.154 1677.94 513.406 1638.1C631.067 1593.98 775.286 1527.8 849.694 1434.47C901.13 1369.95 955.354 1259.1 933.242 1177.4C918.231 1121.97 843.408 1064.6 796.153 1028.53C689.871 947.391 569.616 888.217 448.635 825.671C311.79 754.926 168.438 700.979 21.3346 647.852C-58.5141 619.018 -142.091 605.833 -225.617 585.833C-346.717 556.833 -457.72 532.401 -583.49 533.328C-697.674 534.166 -818.959 599.227 -900.528 663.609C-980.895 727.057 -970.703 826.891 -988.308 910.084C-972.89 911.107 -956.819 907.036 -943.773 899.078L-974.899 952.415L-974.906 952.421Z" fill="url(#paint1_linear_3_2785)"/>
<path style="mix-blend-mode:screen" d="M-485.74 273.572C-568.85 229.209 -597.834 424.246 -602.029 459.26C-614.905 566.607 -595.758 673.872 -532.18 768.155C-444.645 897.972 -273.88 943.446 -138.17 1025.12C57.723 1143.02 78.6043 1348.15 207.487 1506.34C325.244 1650.88 592.262 1695.09 753.73 1577.86C935.28 1446.04 1000.04 1187.42 977.132 988.851C963.641 871.913 894.956 773.636 809.844 681.995C711.241 575.823 611.082 467.631 465.943 405.714C306.424 337.661 117.157 308.046 -60.6045 301.599C-153.603 298.227 -247.573 301.866 -340.638 301.599C-413.26 301.39 -561.438 315.445 -597.893 381.675" fill="url(#paint2_linear_3_2785)"/>
<path style="mix-blend-mode:screen" d="M-683.449 531.162C-609.123 531.867 -542.439 497.335 -466.319 508.183C-367.175 522.314 -251.494 567.439 -185.751 633.676C-125.19 694.685 -101.559 774.525 -80.6331 850.745C-59.8111 926.571 -48.8849 1006.27 -6.09924 1076.14C18.1251 1115.7 52.1638 1150.59 96.6691 1174.41C180.187 1219.12 279.101 1234.21 372.559 1256.63C478.004 1281.91 594.241 1305.48 680.442 1366.66C800.556 1451.91 850.317 1605.1 1008.21 1650.51C1102.49 1677.62 1228.75 1688.99 1318.94 1648.82C1467.3 1582.74 1549.67 1437.38 1566.49 1298.16C1577.73 1205.2 1570.51 1107.76 1516.75 1025.83C1437.35 904.806 1313.83 828.675 1178.25 758.463C1020.49 676.762 847.018 618.115 677.833 556.477C570.039 517.208 464.906 474.3 354.065 442.925C249.577 413.348 148.343 378.391 42.4459 352.821C-24.2009 336.734 -96.459 315.134 -164.655 310.142C-289.506 301.002 -415.95 279.936 -544.359 292.358C-605.884 298.31 -686.688 356.594 -706.354 409.086C-716.828 437.044 -710.142 473.627 -710.142 503.217" fill="url(#paint3_linear_3_2785)"/>
<path style="mix-blend-mode:screen" d="M-592.452 76.7367C-621.991 253.502 -371.267 455.659 -198.968 518.237C-105.243 552.272 -2.45264 557.195 93.9335 583.317C301.835 639.664 305.045 769.685 340.507 927.651C386.806 1133.9 527.594 1238.49 759.112 1288.34C935.695 1326.36 1030.12 1410.36 1151.43 1519.86C1287.91 1643.05 1498.63 1677.47 1689.97 1661.66C1830.31 1650.06 1906.13 1571.57 1933.37 1456.21C1977.13 1270.87 1920.85 1085.76 1798.77 932.37C1642.12 735.541 1419.36 601.227 1207.09 451.346C812.764 172.918 364.094 -45.688 -127.733 -162.238C-291.27 -200.993 -807.863 -288.994 -810.339 -38.3397C-811.013 30.2463 -807.21 90.29 -769.451 149.781C-731.572 209.45 -693.797 245.626 -628.025 278.652" fill="url(#paint4_linear_3_2785)"/>
<path style="mix-blend-mode:screen" d="M-697.986 -6.90723C-646.846 88.6902 -545.946 163.545 -429.805 196.647C-262.087 244.439 -68.0172 202.808 71.4733 317.427C166.725 395.692 202.751 512.299 312.22 580.72C434.981 657.448 593.677 685.781 703.043 779.365C845.565 901.326 791.757 1123.53 928.616 1245.86C1038.7 1344.25 1238.89 1358.34 1387.82 1368.73C1597.92 1383.4 1844.33 1392.2 2010.05 1520.47C2146.43 1626.02 2295.83 1726.9 2491.37 1677.35C2592.02 1651.84 2622.76 1455.84 2625.96 1378.2C2628.47 1317.45 2625.94 1253.67 2596.97 1199.29C2537.84 1088.32 2445.39 993.976 2343.84 908.865C2068.22 677.842 1682.76 521.121 1340.11 375.165C969.934 217.479 717.453 -71.4095 381.743 -273.255C195.998 -384.934 -3.85364 -454.492 -231.947 -446.026C-339.104 -442.05 -445.393 -435.305 -547.265 -405.899C-615.891 -386.09 -702.707 -360.571 -759.466 -320.406C-799.353 -292.182 -810.568 -235.237 -810.517 -191.351C-810.465 -145.718 -774.002 -141.552 -752.854 -107.274C-730.06 -70.3298 -744.655 -39.8697 -688.89 -24.2903" fill="url(#paint5_linear_3_2785)"/>
<path style="mix-blend-mode:screen" opacity="0.6" d="M-604.876 -289.406C-491.604 -316.202 -392.593 -240.433 -324.768 -173.314C-258.536 -107.77 -222.904 -25.7767 -177.687 50.5641C-133.871 124.542 -86.3931 179.556 5.69373 211.509C192.002 276.144 411.475 267.538 546.696 413.786C625.774 499.311 660.939 603.813 775.672 664.339C867.277 712.665 981.016 722.128 1084.69 738.368C1146.12 747.99 1210.32 755.497 1270.4 770.213C1394.68 800.654 1527.98 852.949 1606.22 944.374C1674.53 1024.2 1694.96 1123.39 1738.34 1213.27C1770.73 1280.37 1807.24 1348.88 1871.38 1398.3C1968.79 1473.34 2122.88 1481.29 2248.25 1481.29H2426.05C2451.32 1481.29 2483.66 1485.82 2508.44 1481.29C2529.86 1477.38 2535.15 1474.2 2543.57 1453.15C2551.21 1434.06 2554.31 1413.56 2555.94 1393.56C2558.61 1360.57 2570.08 1329.59 2570.67 1296.16C2571.78 1233.83 2583.74 1171.38 2595.14 1109.59C2613.92 1007.78 2609.03 905.403 2609.24 802.489C2609.41 717.993 2581.64 648.721 2541.04 572.495C2497.87 491.467 2444.13 420.277 2373.82 354.721C2263.81 252.169 2108.79 179.721 1972.26 106.549C1707.35 -35.4304 1413.43 -140.955 1124.58 -240.649C1053.9 -265.043 985.374 -291.267 919.254 -321.804C861.102 -348.663 806.182 -385.366 746.696 -408.802C606.657 -463.974 468.819 -510.82 316.445 -535.139C246.367 -546.323 181.284 -563.37 109.337 -566.189C58.8793 -568.171 8.03619 -568.863 -42.9033 -568.863H-533.7C-584.684 -568.863 -655.126 -576.745 -696.777 -553.055C-744.077 -526.152 -732.358 -454.282 -732.358 -408.757C-732.358 -363.232 -736.813 -315.948 -729.549 -271.63C-724.59 -241.373 -716.495 -208.721 -705.821 -180.167C-691.752 -142.536 -663.888 -111.231 -658.239 -70.9333" fill="url(#paint6_linear_3_2785)"/>
<path style="mix-blend-mode:screen" opacity="0.64" d="M-219.264 -543.325C-268.795 -502.729 -267.224 -403.803 -249.485 -353.496C-229.138 -295.764 -185.44 -242.941 -130.172 -205.889C6.45746 -114.312 215.73 -123.679 328.736 -5.23694C420.986 91.4465 404.997 241.327 530.477 318.818C667.351 403.339 840.836 363.161 996.108 364.114C1151.46 365.073 1314.99 415.399 1423.93 512.369C1530.92 607.61 1555.86 746.593 1644.69 852.295C1700.85 919.128 1755.37 952.224 1851.89 960.671C1957.38 969.905 2064.82 953.386 2167.86 981.496C2264.15 1007.76 2340.05 1062.31 2394.02 1134.23C2442.41 1198.71 2481.01 1281.77 2566.98 1316.36C2660.25 1353.88 2807.57 1348.4 2891.77 1297.38C2980.4 1243.68 3011.29 1137.18 3035.29 1051.63C3056.43 976.307 3072.01 899.026 3088.71 823.67C3095.69 792.187 3102.22 760.127 3098.8 727.45C3084.35 589.154 2979.37 424.99 2889.07 313.152C2827.39 236.773 2776.27 155.015 2705.92 83.1202C2634.93 10.571 2547.34 -46.2018 2457.38 -100.174C2299.02 -195.174 2133.6 -281.372 1967.38 -364.909C1639.64 -529.613 1300.51 -687.757 928.008 -758.8C816.686 -780.032 709.329 -791.026 595.034 -796.469C490.093 -801.467 420.963 -775.205 321.064 -756.057C210.067 -734.774 109.76 -694.965 8.4292 -651.625C-61.4866 -621.717 -125.85 -601.076 -184.714 -558.123" fill="url(#paint7_linear_3_2785)"/>
<path style="mix-blend-mode:screen" d="M-76.371 -434.34C-65.1705 -464.469 19.5928 -457.705 46.2411 -455.438C98.1739 -451.018 147.727 -434.416 185.739 -403.187C278.152 -327.265 244.188 -196.514 343.072 -122.714C446.648 -45.4144 592.551 -42.2642 712.672 6.32208C819.784 49.6496 872.725 146.886 950.365 216.64C1034.95 292.645 1158.65 317.014 1274.77 335.096C1413.78 356.747 1555.28 366.775 1692.47 396.695C1994.82 462.627 1964.89 822.495 2250.23 908.769C2312.89 927.715 2395.45 916.105 2445.3 878.951C2506.67 833.216 2518.1 760.705 2549.53 700.249C2563.73 672.932 2582.97 651.446 2593.57 622.276C2605.86 588.443 2616.71 553.867 2631.75 520.708C2661.82 454.37 2673.67 384.126 2681.45 312.822C2686.27 268.605 2687.39 224.465 2688.84 180.026C2689.74 152.678 2696.58 131.941 2672.66 111.834C2648.16 91.2306 2614.31 75.2639 2588.04 55.2577C2518.33 2.16846 2440.89 -45.6049 2363.7 -90.5647C2265.77 -147.604 2161.05 -189.82 2056.42 -236.215C1914.77 -299.028 1774.3 -364.547 1627.73 -419.186C1439.14 -489.486 1255.34 -591.956 1049.55 -621.66C924.606 -639.691 801.275 -656.388 677.403 -678.185C569.431 -697.188 461.637 -703.546 351.485 -706.188C263.186 -708.303 160.492 -722.142 77.4037 -688.106C10.2009 -660.574 9.39294 -597.285 -17.0108 -544.056C-27.7368 -522.43 -87.6011 -470.077 -75.8743 -449.582" fill="url(#paint8_linear_3_2785)"/>
<path style="mix-blend-mode:screen" d="M345.422 -490.103C308.314 -474.263 329.67 -391.38 345.948 -370.58C403.529 -297.002 520.597 -326.453 602.788 -323.982C688.3 -321.41 731.13 -270.042 759.995 -206.854C786.465 -148.925 793.7 -83.2482 842.994 -34.7572C939.854 60.5226 1098.06 32.6855 1227.59 27.7063C1332.03 23.6924 1419.31 64.2698 1491.84 125.831C1554.06 178.635 1599.86 244.661 1668.4 292.193C1740.78 342.393 1833.51 350.459 1923.23 342.647C1996.66 336.251 2062.23 334.289 2122.98 375.298C2173.55 409.429 2207.25 458.905 2255.45 495.436C2313.69 539.577 2433.4 614 2511.13 561.164C2548.38 535.836 2555.89 492.407 2569.01 455.729C2585.43 409.791 2600.04 363.999 2610.55 316.747C2622.01 265.226 2638.93 200.946 2616.28 149.636C2586.99 83.3042 2528.84 16.903 2472.69 -34.9859C2443.3 -62.1371 2410.09 -83.623 2372.85 -102.067C2289.15 -143.514 2194.99 -176.559 2107.1 -211.338C1962.02 -268.753 1819.77 -331.699 1672.74 -384.159C1560.09 -424.356 1433.3 -446.674 1314.55 -475.057C1188.35 -505.225 1053.86 -516.371 923.606 -527.663C827.731 -535.971 735.118 -543.459 638.235 -543.459C577.088 -543.459 517.721 -540.404 461.252 -520.728C421.342 -506.825 380.662 -492.116 342.45 -479.947" fill="url(#paint9_linear_3_2785)"/>
<path style="mix-blend-mode:screen" d="M736.808 -398.646C754.442 -386.217 763.211 -366.503 780.26 -353.477C845.032 -304.014 933.442 -298.387 1014.86 -284.853C1096.63 -271.261 1170.25 -242.122 1224.33 -186.175C1269.56 -139.373 1287.48 -72.1974 1333.62 -23.5793C1368.44 13.1176 1411.9 38.8206 1464.01 54.2411C1672.58 115.943 1931.04 12.8508 2096.82 169.934C2135.43 206.516 2161.02 252.918 2199.52 288.846C2269.85 354.504 2443.98 353.488 2535.84 333.158C2620.94 314.327 2642.77 244.318 2627.91 177.53C2603.31 67.0007 2514.69 -47.9234 2415.88 -119.463C2235.09 -250.373 2031.46 -349.057 1824.02 -446.401C1721.63 -494.447 1617.09 -522.983 1505.7 -550.293C1381.8 -580.67 1248.14 -573.728 1120.36 -573.944C1019.03 -574.116 952.485 -529.397 873.192 -484.33C822.231 -455.362 773.597 -428.795 724.933 -396.112" fill="url(#paint10_linear_3_2785)"/>
<path style="mix-blend-mode:screen" d="M1114.77 -392.816C1125.23 -327.97 1194.45 -263.843 1261.87 -237.556C1381.36 -190.97 1532.92 -261.29 1643.25 -192.088C1718.37 -144.969 1760.36 -70.025 1829.83 -17.7995C1891.33 28.4305 1968.12 60.4402 2049.3 70.3481C2144.8 82.0024 2242.01 69.9035 2336.32 91.2307C2389.29 103.203 2444.04 131.262 2500.08 130.284C2553.02 129.363 2554.91 96.8196 2559.53 59.6526C2562.79 33.4606 2568.33 7.30017 2568.89 -19.2476C2570.39 -91.2252 2557.89 -165.667 2552.55 -237.479C2549.69 -275.967 2546.72 -310.88 2524.03 -345.138C2485.62 -403.092 2413.06 -434.244 2348.35 -466.273C2280.92 -499.642 2202.04 -524.532 2126.66 -541.68C1970.97 -577.101 1812 -600.339 1650.35 -598.802C1596.59 -598.288 1542.74 -593.753 1489.1 -590.825C1459.42 -589.206 1417.76 -593.22 1389.22 -584.665C1369.54 -578.765 1350.57 -565.014 1334.73 -553.855C1308.4 -535.304 1284.53 -514.18 1256.85 -498.01C1208.45 -469.741 1127.93 -439.046 1108.39 -388.668" fill="url(#paint11_linear_3_2785)"/>
<path style="mix-blend-mode:screen" d="M1337.34 -435.61C1406.72 -469.576 1497.72 -437.655 1556.04 -400.622C1616.95 -361.949 1630.75 -290.086 1690.61 -251.592C1749.72 -213.587 1827.96 -214.99 1898.13 -216.807C2046.84 -220.655 2195.68 -214.514 2325.03 -144.105C2435.86 -83.7755 2594.71 10.0564 2734.23 -24.5637C2779.62 -35.8243 2803.09 -79.1137 2812.92 -115.137C2832.03 -185.172 2834.23 -251.052 2832.59 -322.858C2830.02 -435.375 2747.53 -499.363 2635.73 -546.114C2558.91 -578.231 2474.86 -599.304 2392.97 -618.841C2346.69 -629.879 2298.24 -642.664 2250.42 -643.667C2148.81 -645.808 2043.81 -642.187 1942.32 -637.043C1883.41 -634.058 1821.29 -621.927 1763.55 -611.511C1682.57 -596.904 1615.25 -564.138 1538.8 -539.464C1493.95 -524.99 1453.58 -516.079 1415.84 -493.361C1392.18 -479.115 1366.4 -449.043 1340.15 -440.742" fill="url(#paint12_linear_3_2785)"/>
</g>
</g>
<defs>
<linearGradient id="paint0_linear_3_2785" x1="2175.34" y1="-527.358" x2="91.3441" y2="1904.93" gradientUnits="userSpaceOnUse">
<stop stop-color="#CCE0F4"/>
<stop offset="0.06" stop-color="#C2DCF2"/>
<stop offset="0.17" stop-color="#A9D2EE"/>
<stop offset="0.31" stop-color="#7FC2E7"/>
<stop offset="0.46" stop-color="#46ABDD"/>
<stop offset="0.57" stop-color="#1E9CD7"/>
<stop offset="0.87" stop-color="#0075BE"/>
<stop offset="0.99" stop-color="#005B97"/>
</linearGradient>
<linearGradient id="paint1_linear_3_2785" x1="-1246.73" y1="1598.33" x2="-261.705" y2="1013.83" gradientUnits="userSpaceOnUse">
<stop stop-color="#0071BC"/>
<stop offset="0.11" stop-color="#006BB2"/>
<stop offset="0.28" stop-color="#005C99"/>
<stop offset="0.51" stop-color="#00436F"/>
<stop offset="0.77" stop-color="#002036"/>
<stop offset="0.99"/>
</linearGradient>
<linearGradient id="paint2_linear_3_2785" x1="-655.155" y1="1629.27" x2="22.3663" y2="783.669" gradientUnits="userSpaceOnUse">
<stop stop-color="#0071BC"/>
<stop offset="0.15" stop-color="#005E9D"/>
<stop offset="0.74" stop-color="#001A2C"/>
<stop offset="0.99"/>
</linearGradient>
<linearGradient id="paint3_linear_3_2785" x1="-314.508" y1="1561.14" x2="305.094" y2="837.983" gradientUnits="userSpaceOnUse">
<stop stop-color="#0054BA"/>
<stop offset="0.15" stop-color="#00469D"/>
<stop offset="0.73" stop-color="#00142C"/>
<stop offset="0.99"/>
</linearGradient>
<linearGradient id="paint4_linear_3_2785" x1="-84.2286" y1="1266.55" x2="678.556" y2="376.279" gradientUnits="userSpaceOnUse">
<stop stop-color="#0061C9"/>
<stop offset="0.16" stop-color="#004B9D"/>
<stop offset="0.58" stop-color="#00152C"/>
<stop offset="0.76"/>
</linearGradient>
<linearGradient id="paint5_linear_3_2785" x1="190.254" y1="1579.82" x2="816.592" y2="460.177" gradientUnits="userSpaceOnUse">
<stop stop-color="#007DED"/>
<stop offset="0.31" stop-color="#00529D"/>
<stop offset="0.75" stop-color="#00172C"/>
<stop offset="0.95"/>
</linearGradient>
<linearGradient id="paint6_linear_3_2785" x1="607.19" y1="843.486" x2="999.773" y2="177.021" gradientUnits="userSpaceOnUse">
<stop stop-color="#0099C9"/>
<stop offset="0.16" stop-color="#00779D"/>
<stop offset="0.58" stop-color="#00222C"/>
<stop offset="0.76"/>
</linearGradient>
<linearGradient id="paint7_linear_3_2785" x1="777.51" y1="1047.96" x2="1542.53" y2="-188.644" gradientUnits="userSpaceOnUse">
<stop stop-color="#75FFE6"/>
<stop offset="0.16" stop-color="#51B09F"/>
<stop offset="0.33" stop-color="#2E655B"/>
<stop offset="0.47" stop-color="#152E2A"/>
<stop offset="0.57" stop-color="#050C0B"/>
<stop offset="0.63"/>
</linearGradient>
<linearGradient id="paint8_linear_3_2785" x1="828.428" y1="820.171" x2="1366.9" y2="-423.332" gradientUnits="userSpaceOnUse">
<stop stop-color="#73EBE8"/>
<stop offset="0.21" stop-color="#4C9D9B"/>
<stop offset="0.54" stop-color="#152C2C"/>
<stop offset="0.68"/>
</linearGradient>
<linearGradient id="paint9_linear_3_2785" x1="734.451" y1="1007.64" x2="1596.77" y2="-635.524" gradientUnits="userSpaceOnUse">
<stop stop-color="#5EFFFF"/>
<stop offset="0.28" stop-color="#399C9C"/>
<stop offset="0.61" stop-color="#102C2C"/>
<stop offset="0.76"/>
</linearGradient>
<linearGradient id="paint10_linear_3_2785" x1="1095.8" y1="1090.87" x2="1674.74" y2="-485.759" gradientUnits="userSpaceOnUse">
<stop stop-color="#6EFFFF"/>
<stop offset="0.33" stop-color="#439C9C"/>
<stop offset="0.73" stop-color="#132C2C"/>
<stop offset="0.9"/>
</linearGradient>
<linearGradient id="paint11_linear_3_2785" x1="1377.02" y1="845.05" x2="1898.5" y2="-705.932" gradientUnits="userSpaceOnUse">
<stop stop-color="#8CFFFF"/>
<stop offset="0.33" stop-color="#569C9C"/>
<stop offset="0.73" stop-color="#182C2C"/>
<stop offset="0.9"/>
</linearGradient>
<linearGradient id="paint12_linear_3_2785" x1="1945" y1="116.737" x2="2139.91" y2="-682.364" gradientUnits="userSpaceOnUse">
<stop stop-color="#75FFE6"/>
<stop offset="0.05" stop-color="#70F4DC"/>
<stop offset="0.14" stop-color="#62D7C2"/>
<stop offset="0.26" stop-color="#4DA897"/>
<stop offset="0.4" stop-color="#2F675D"/>
<stop offset="0.56" stop-color="#091513"/>
<stop offset="0.6"/>
</linearGradient>
</defs>
</svg>
