<svg xmlns="http://www.w3.org/2000/svg" width="61" height="33" viewBox="0 0 61 33" fill="none">
<path d="M7.30228 31.3441C11.3256 32.1487 19.8715 33.0027 31.8341 32.9526C40.4051 32.9167 59.0256 31.3441 60.4946 29.0311C61.3491 27.322 57.6494 25.2486 56.8428 25.1019C53.5452 24.5024 51.484 24.4345 48.1636 24.1792C46.9837 24.0883 45.8004 24.108 44.6138 24.108C44.0885 24.108 43.052 24.3211 43.052 24.3211C43.052 24.3211 43.9698 23.7784 44.4719 23.6111C45.4281 23.2924 46.3066 22.8488 47.2407 22.4753C50.7626 21.0663 54.4615 19.9049 57.8188 18.0736C59.0964 17.3767 60.4075 15.7637 59.0256 14.3819C57.8844 13.2407 56.0003 13.6664 54.5531 13.9559C51.2499 14.6165 47.9881 16.139 44.9367 17.5632L44.7557 17.6476C43.052 18.4427 40.2122 20.3453 40.2122 20.3453C40.2122 20.3453 43.2946 17.2964 43.478 17.0797C44.2246 16.1972 45.2043 15.5327 45.9627 14.6659C46.5552 13.9888 47.0977 13.3179 47.7377 12.6779C49.4272 10.9883 55.2636 4.97524 50.0093 3.66157C48.4333 3.26762 46.5816 4.21444 45.1817 4.79762C41.2289 6.4446 38.699 10.182 36.3075 13.5299C35.454 14.7249 34.6537 16.1297 34.3907 17.5767C34.2885 18.1384 34.1066 18.7106 34.1066 19.2804V17.8605C34.1066 16.8855 34.0219 15.922 33.9647 14.9498C33.7273 10.9159 33.2589 7.15336 31.9769 3.30676C31.5777 2.10942 31.3737 -0.136647 29.634 0.111937C27.9642 0.350414 27.0093 2.36037 26.5102 3.73274C25.5866 6.27239 24.8681 14.6659 26.7233 21.5523C25.4314 19.9008 24.1619 18.3516 22.7474 16.7957C21.1514 15.0399 19.6767 13.0886 17.8489 11.5421C16.5345 10.4299 15.0024 9.67533 13.6601 8.63132C12.1953 7.49205 10.2797 6.07 8.40654 7.14046C5.96156 8.53756 8.75276 11.4247 9.75548 12.6779C12.0237 15.5132 14.4601 18.5287 17.1388 20.9844C18.6026 22.3262 20.4306 23.3533 21.8245 24.7471C21.9686 24.891 21.497 24.505 21.3275 24.3921C20.914 24.1164 20.514 23.8461 20.1207 23.5401C18.9397 22.6217 17.7882 21.7278 16.5709 20.8425C13.5623 18.6542 9.38217 16.8957 5.70867 16.2278C4.57628 16.0217 2.88651 15.5783 1.80401 16.2278C0.29337 17.1341 2.5016 19.0594 3.15295 19.4935C6.25487 21.5613 8.34509 23.5861 11.7556 25.1019L17.7779 27.7998C17.7779 27.7998 13.1406 26.5571 12.8082 26.4573C9.34733 25.4191 6.87267 25.1019 3.29487 25.1019C2.28269 25.1019 -0.0334498 26.1662 0.374907 27.7998C0.879817 29.8194 5.41984 30.9678 7.30228 31.3441Z" fill="#939878"/>
</svg>