<svg width="49" height="49" viewBox="0 0 49 49" fill="none" xmlns="http://www.w3.org/2000/svg">
<path d="M39.7798 45.0865L43.585 34.6193C43.7732 34.1019 43.7647 33.5333 43.5611 33.0217C43.3574 32.51 42.9728 32.0911 42.4805 31.8446L25.0686 23.1386C24.757 22.9829 24.4134 22.9019 24.0651 22.9019C23.7167 22.9019 23.3732 22.9829 23.0616 23.1386L5.64968 31.8446C5.15711 32.0909 4.77229 32.5098 4.56843 33.0214C4.36457 33.533 4.35589 34.1017 4.54404 34.6193L8.35037 45.0865" stroke="#FFB11A" stroke-width="3" stroke-linejoin="round"/>
<path d="M29.6775 13.6569V4.67709C29.6775 4.08169 29.441 3.51067 29.02 3.08966C28.599 2.66865 28.028 2.43213 27.4326 2.43213H20.6977C20.1023 2.43213 19.5313 2.66865 19.1103 3.08966C18.6893 3.51067 18.4527 4.08169 18.4527 4.67709V13.6569M36.4124 13.6569H11.7179C11.1225 13.6569 10.5514 13.8934 10.1304 14.3145C9.70942 14.7355 9.4729 15.3065 9.4729 15.9019V29.3716L23.1245 23.0712C23.4194 22.9351 23.7403 22.8646 24.0651 22.8646C24.3899 22.8646 24.7109 22.9351 25.0058 23.0712L38.6574 29.3716V15.9019C38.6574 15.3065 38.4208 14.7355 37.9998 14.3145C37.5788 13.8934 37.0078 13.6569 36.4124 13.6569Z" stroke="#FFB11A" stroke-width="3" stroke-linecap="round" stroke-linejoin="round"/>
<path d="M24.0651 33.8616V42.8414" stroke="#FFB11A" stroke-width="3" stroke-linecap="round"/>
<path d="M1.61554 47.3314C6.10546 47.3314 6.10546 45.0864 9.4729 45.0864C12.8403 45.0864 12.8403 47.3314 16.2078 47.3314C19.5752 47.3314 20.1365 45.0864 24.0651 45.0864C27.9938 45.0864 28.555 47.3314 31.9225 47.3314C35.2899 47.3314 35.2899 45.0864 38.6574 45.0864C42.0248 45.0864 42.0248 47.3314 46.5147 47.3314" stroke="#FFB11A" stroke-width="3" stroke-linecap="round" stroke-linejoin="round"/>
</svg>
