<svg width="49" height="49" viewBox="0 0 49 49" fill="none" xmlns="http://www.w3.org/2000/svg">
<path d="M39.7801 45.0865L43.5853 34.6193C43.7735 34.1019 43.765 33.5333 43.5614 33.0217C43.3577 32.51 42.9731 32.0911 42.4808 31.8446L25.0689 23.1386C24.7573 22.9829 24.4137 22.9019 24.0654 22.9019C23.717 22.9019 23.3735 22.9829 23.0619 23.1386L5.64995 31.8446C5.15739 32.0909 4.77257 32.5098 4.5687 33.0214C4.36484 33.533 4.35616 34.1017 4.54431 34.6193L8.35064 45.0865" stroke="#097CCD" stroke-width="3" stroke-linejoin="round"/>
<path d="M29.6778 13.6569V4.67709C29.6778 4.08169 29.4413 3.51067 29.0203 3.08966C28.5993 2.66865 28.0283 2.43213 27.4329 2.43213H20.698C20.1026 2.43213 19.5316 2.66865 19.1106 3.08966C18.6896 3.51067 18.453 4.08169 18.453 4.67709V13.6569M36.4127 13.6569H11.7182C11.1228 13.6569 10.5518 13.8934 10.1307 14.3145C9.70973 14.7355 9.47321 15.3065 9.47321 15.9019V29.3716L23.1248 23.0712C23.4197 22.9351 23.7406 22.8646 24.0654 22.8646C24.3902 22.8646 24.7112 22.9351 25.0061 23.0712L38.6577 29.3716V15.9019C38.6577 15.3065 38.4212 14.7355 38.0001 14.3145C37.5791 13.8934 37.0081 13.6569 36.4127 13.6569Z" stroke="#097CCD" stroke-width="3" stroke-linecap="round" stroke-linejoin="round"/>
<path d="M24.0654 33.8616V42.8414" stroke="#097CCD" stroke-width="3" stroke-linecap="round"/>
<path d="M1.61584 47.3314C6.10576 47.3314 6.10576 45.0864 9.4732 45.0864C12.8406 45.0864 12.8406 47.3314 16.2081 47.3314C19.5755 47.3314 20.1368 45.0864 24.0654 45.0864C27.9941 45.0864 28.5554 47.3314 31.9228 47.3314C35.2902 47.3314 35.2902 45.0864 38.6577 45.0864C42.0251 45.0864 42.0251 47.3314 46.515 47.3314" stroke="#097CCD" stroke-width="3" stroke-linecap="round" stroke-linejoin="round"/>
</svg>
