<svg xmlns="http://www.w3.org/2000/svg" width="42" height="43" viewBox="0 0 42 43" fill="none">
  <path d="M24.8077 29.9167H16.9155C13.6607 29.9167 10.8375 27.5998 10.2024 24.4075L8.54328 16.0662L5.67773 15.2942L7.86583 26.2942V42.9594H10.3629V33.0158H22.3107V42.9594H24.8077V29.9167Z" fill="#FF9900"/>
  <path d="M30.4037 30.3876C29.9522 30.0854 29.4161 29.917 28.8542 29.917H27.3047V30.519V42.9597H30.4036V30.3876H30.4037Z" fill="#FF9900"/>
  <path d="M33.2705 29.8011L39.0033 38.5206L41.5927 36.8181L35.8599 28.0986C34.3045 25.7329 31.6858 24.3206 28.8545 24.3206H12.752C13.2976 26.1387 14.9872 27.4196 16.9158 27.4196H28.8546C30.6393 27.4196 32.2902 28.3099 33.2705 29.8011Z" fill="#FF9900"/>
  <path d="M10.6901 14.0583L12.2347 21.8235H21.1002L19.2181 12.362L26.8305 6.50437C27.6876 5.84489 27.5047 4.93704 27.4282 4.6746C27.3518 4.41208 27.0186 3.54818 25.9415 3.45212L19.1571 2.84717C19.462 4.44204 19.1347 6.06197 18.2316 7.41363C17.3196 8.77845 15.9308 9.70644 14.321 10.0266C13.9181 10.1067 13.516 10.1453 13.1201 10.1454C10.2644 10.1456 7.70401 8.13995 7.10522 5.24452L1.06898 8.39956C0.110522 8.90055 0.133329 9.8263 0.163127 10.0981C0.192925 10.3698 0.371382 11.2785 1.41557 11.5598L10.6901 14.0583Z" fill="#FF9900"/>
  <path d="M9.54413 4.71154C9.93667 6.68439 11.861 7.97013 13.8338 7.57776C14.7895 7.38765 15.614 6.83679 16.1554 6.02658C16.6967 5.21637 16.8902 4.24384 16.7001 3.28822C16.51 2.33251 15.9591 1.50806 15.1489 0.966612C14.5418 0.560922 13.8436 0.350586 13.1297 0.350586C12.8907 0.350586 12.6501 0.374142 12.4104 0.421836C10.4376 0.814208 9.15168 2.73861 9.54413 4.71154Z" fill="#FF9900"/>
</svg>