<svg xmlns="http://www.w3.org/2000/svg" width="92" height="92" viewBox="0 0 92 92" fill="none">
  <g clip-path="url(#clip0_46_557)">
    <path d="M11.0814 59.4949L0.481453 70.0948C0.303186 70.2647 0.369836 70.572 0.618309 70.6457L13.3846 74.5237C15.1957 75.0747 16.6069 76.4859 17.1577 78.2969L21.0357 91.0632C21.1093 91.3116 21.4168 91.3783 21.5867 91.2L35.7696 77.0172C25.2759 74.4105 16.6126 67.8685 11.0814 59.4949Z" fill="#FF9900"/>
    <path d="M91.2806 70.0948L80.6807 59.4949C75.1889 67.8086 66.5525 74.394 55.9922 77.0173L70.175 91.2002C70.3449 91.3785 70.6524 91.3118 70.726 91.0633L74.604 78.297C75.155 76.4859 76.5662 75.0747 78.3773 74.5239L91.1436 70.6459C91.3928 70.5718 91.4585 70.2641 91.2806 70.0948Z" fill="#FF9900"/>
    <path d="M82.186 36.6067C82.186 16.589 65.9005 0.301758 45.8811 0.301758C25.8616 0.301758 9.57617 16.589 9.57617 36.6067C9.57617 54.7063 22.9025 69.7916 40.3022 72.485C62.3425 75.9135 82.186 58.7582 82.186 36.6067ZM17.5812 45.4541C11.5938 26.3119 26.007 6.96129 45.8811 6.96129C68.0824 6.96129 82.7567 30.822 71.9345 50.7486C59.4408 73.6677 25.4445 70.4658 17.5812 45.4541Z" fill="#FF9900"/>
    <path d="M45.8807 12.2932C32.4746 12.2932 21.5654 23.2006 21.5654 36.6067C21.5654 56.3303 43.9274 67.8325 59.9409 56.4325C63.3719 53.9972 66.1659 50.6678 67.9637 46.7781C75.4341 30.6957 63.5253 12.2932 45.8807 12.2932ZM58.1529 33.1962C57.8494 33.4216 43.0773 44.3855 42.9926 44.4484C41.9256 45.2436 40.4078 45.1369 39.4592 44.132C32.6738 36.9007 33.2166 37.4782 33.0538 37.3072C31.9137 36.0931 32.1516 34.1293 33.5781 33.2266C33.5799 33.2248 33.5817 33.223 33.5835 33.223C34.6428 32.5583 36.0558 32.7129 36.9427 33.6585C38.3775 35.1877 37.4117 34.1585 41.7218 38.7504C42.1863 38.404 47.6531 34.3484 55.1741 28.7672C56.356 27.8892 58.0267 28.1363 58.9028 29.3182C59.7058 30.396 59.703 32.0477 58.1529 33.1962Z" fill="#FF9900"/>
  </g>
  <defs>
    <clipPath id="clip0_46_557">
      <rect width="91" height="91" fill="white" transform="translate(0.380859 0.30127)"/>
    </clipPath>
  </defs>
</svg>