<svg xmlns="http://www.w3.org/2000/svg" width="38" height="46" viewBox="0 0 38 46" fill="none">
  <path d="M35.7869 1.59058C34.9908 0.792772 33.932 0.353271 32.8055 0.353271H30.9356V2.22827C30.9356 4.29602 29.2553 5.97827 27.1898 5.97827H10.3335C8.268 5.97827 6.58763 4.29602 6.58763 2.22827V0.353271H4.7116C2.39053 0.353271 0.500159 2.24365 0.497534 4.56733L0.457034 41.3173C0.455722 42.4451 0.893535 43.5056 1.68957 44.3035C2.48578 45.1014 3.5446 45.5408 4.6711 45.5408H32.7649C35.0859 45.5408 36.9764 43.6504 36.9789 41.3267L37.0195 4.57671C37.0209 3.44899 36.583 2.38849 35.7869 1.59058ZM19.2158 14.4158H29.1958C29.9716 14.4158 30.6005 15.0454 30.6005 15.822C30.6005 16.5986 29.9716 17.2283 29.1958 17.2283H19.2158C18.4401 17.2283 17.8112 16.5986 17.8112 15.822C17.8112 15.0454 18.4401 14.4158 19.2158 14.4158ZM19.2158 23.7908H29.1958C29.9716 23.7908 30.6005 24.4204 30.6005 25.197C30.6005 25.9736 29.9716 26.6033 29.1958 26.6033H19.2158C18.4401 26.6033 17.8112 25.9736 17.8112 25.197C17.8112 24.4204 18.4401 23.7908 19.2158 23.7908ZM19.2158 33.1658H29.2359C30.0117 33.1658 30.6406 33.7954 30.6406 34.572C30.6406 35.3486 30.0117 35.9783 29.2359 35.9783H19.2158C18.4401 35.9783 17.8112 35.3486 17.8112 34.572C17.8112 33.7954 18.4401 33.1658 19.2158 33.1658ZM7.24744 14.4713C7.79607 13.9221 8.68538 13.9221 9.234 14.4713L9.99779 15.236L13.2372 11.993C13.7858 11.4439 14.6752 11.4437 15.2237 11.993C15.7722 12.5421 15.7722 13.4325 15.2237 13.9817L10.991 18.219C10.7275 18.4827 10.3703 18.631 9.99769 18.631C9.62513 18.631 9.26785 18.4828 9.00441 18.219L7.24735 16.4599C6.69882 15.9108 6.69882 15.0204 7.24744 14.4713ZM7.24744 24.5622C7.79607 24.0131 8.68538 24.0131 9.234 24.5622L9.99779 25.3269L13.2372 22.0839C13.7858 21.5348 14.6752 21.5348 15.2237 22.0839C15.7722 22.633 15.7722 23.5234 15.2237 24.0726L10.991 28.31C10.7276 28.5737 10.3703 28.7219 9.99769 28.7219C9.62513 28.7219 9.26785 28.5738 9.00441 28.31L7.24735 26.5509C6.69882 26.0018 6.69882 25.1114 7.24744 24.5622ZM7.24744 33.9372C7.79607 33.3881 8.68538 33.3881 9.234 33.9372L9.99779 34.7019L13.2372 31.4589C13.7858 30.9098 14.6752 30.9098 15.2237 31.4589C15.7722 32.008 15.7722 32.8984 15.2237 33.4476L10.991 37.685C10.7276 37.9487 10.3703 38.0969 9.99769 38.0969C9.62513 38.0969 9.26785 37.9488 9.00441 37.685L7.24735 35.9259C6.69882 35.3768 6.69882 34.4864 7.24744 33.9372Z" fill="#FF9900"/>
</svg>