<svg xmlns="http://www.w3.org/2000/svg" width="95" height="96" viewBox="0 0 95 96" fill="none">
  <path d="M26.0013 22.4527L18.186 14.6374C17.1066 13.558 15.3577 13.558 14.2783 14.6374C13.1989 15.7168 13.1989 17.4657 14.2783 18.5451L22.0936 26.3604C23.173 27.4398 24.9219 27.4398 26.0013 26.3604C27.0807 25.281 27.0807 23.5321 26.0013 22.4527Z" fill="#FF9900"/>
  <path d="M14.3382 45.0916H3.10033C1.5729 45.0916 0.336914 46.3275 0.336914 47.855C0.336914 49.3824 1.5729 50.6184 3.10033 50.6184H14.3382C15.8657 50.6184 17.1017 49.3824 17.1017 47.855C17.1017 46.3275 15.8657 45.0916 14.3382 45.0916Z" fill="#FF9900"/>
  <path d="M91.8998 45.0908H80.6619C79.1344 45.0908 77.8984 46.3268 77.8984 47.8542C77.8984 49.3817 79.1344 50.6177 80.6619 50.6177H91.8998C93.4272 50.6177 94.6632 49.3817 94.6632 47.8542C94.6632 46.3268 93.4272 45.0908 91.8998 45.0908Z" fill="#FF9900"/>
  <path d="M80.7151 14.6367C79.6358 13.5573 77.8869 13.5573 76.8075 14.6367L68.9922 22.452C67.9128 23.5314 67.9128 25.2803 68.9922 26.3597C70.0716 27.4391 71.8204 27.4391 72.8998 26.3597L80.7151 18.5444C81.7945 17.465 81.7945 15.7163 80.7151 14.6367Z" fill="#FF9900"/>
  <path d="M47.4968 0.691895C45.9694 0.691895 44.7334 1.92788 44.7334 3.45531V14.6932C44.7334 16.2207 45.9694 17.4566 47.4968 17.4566C49.0243 17.4566 50.2602 16.2207 50.2602 14.6932V3.45531C50.2602 1.92788 49.0243 0.691895 47.4968 0.691895Z" fill="#FF9900"/>
  <path d="M62.9714 28.3443C56.9473 23.5912 49.1543 21.8781 41.5272 23.7019C32.6843 25.7468 25.5549 32.7657 23.3992 41.5536C21.2437 50.3964 23.7308 59.3498 30.0865 65.5952C32.3527 67.8614 33.6791 71.4168 33.6791 75.0647V75.6726C33.6791 77.22 34.8949 78.4361 36.4426 78.4361H58.5499C60.0976 78.4361 61.3133 77.22 61.3133 75.6726V75.0647C61.3133 71.472 62.695 67.8059 65.1269 65.4294C69.7696 60.7316 72.367 54.4864 72.367 47.8542C72.367 40.2272 68.9404 33.0974 62.9714 28.3443ZM47.4962 39.5639C43.3272 39.5639 40.2922 42.3294 39.4974 45.5307C39.1358 46.9867 37.6708 47.9159 36.1483 47.5493C34.6695 47.1823 33.7654 45.6818 34.1325 44.203C35.5017 38.6761 40.6929 34.0371 47.4962 34.0371C49.0237 34.0371 50.2597 35.2731 50.2597 36.8005C50.2597 38.328 49.0237 39.5639 47.4962 39.5639Z" fill="#FF9900"/>
  <path d="M36.4453 83.9636V86.727C36.4453 91.2985 40.1641 95.0173 44.7356 95.0173H50.2624C54.8338 95.0173 58.5527 91.2985 58.5527 86.727V83.9636H36.4453Z" fill="#FF9900"/>
</svg>