<svg xmlns="http://www.w3.org/2000/svg" width="91" height="76" viewBox="0 0 91 76" fill="none">
  <path fill-rule="evenodd" clip-rule="evenodd" d="M46.6694 0.270816C39.3662 0.0276052 31.9877 2.0201 25.6174 6.2723C18.4627 11.0532 13.4626 18.1131 11.1595 26.0055C10.5235 25.9278 9.7619 25.9621 8.85756 26.2179C5.48116 27.1759 2.94172 29.9425 1.79989 32.3792C0.318928 35.5546 -0.305655 39.7543 0.353183 44.0899C1.00745 48.4117 2.83325 51.9742 5.11692 54.186C7.40744 56.3988 9.99369 57.1182 12.5628 56.5781C16.388 55.7617 18.2845 55.1508 17.749 51.5871L15.1559 34.3123C15.6789 24.963 20.5191 16.1617 28.6147 10.7494C39.4507 3.51134 53.6574 3.97493 63.9933 11.9095C71.1834 17.4223 75.358 25.6823 75.8398 34.3534L74.0266 46.4375C69.9822 57.5053 59.9558 65.1715 48.3536 66.2597H40.628C38.6343 66.2597 37.0289 67.8651 37.0289 69.8565V71.7542C37.0289 73.7467 38.6343 75.3521 40.628 75.3521H50.3689C52.3615 75.3521 53.96 73.7467 53.96 71.7542V70.762C62.7088 68.6267 70.3453 63.2498 75.318 55.7514L78.4387 56.5792C80.9781 57.2381 83.5952 56.3988 85.8846 54.1871C88.1682 51.9742 89.9929 48.4128 90.6483 44.091C91.3094 39.7554 90.6666 35.5626 89.2027 32.3803C87.7332 29.198 85.5443 27.177 83.0174 26.4519C81.9589 26.1471 80.8102 26.0352 79.8249 26.0055C77.7421 18.869 73.4546 12.3788 67.2749 7.64022C61.1992 2.97811 53.9726 0.510601 46.6694 0.270816Z" fill="#FF9900"/>
  <path fill-rule="evenodd" clip-rule="evenodd" d="M58.071 31.3493C60.6458 31.3493 62.7331 33.4366 62.7388 36.0182C62.7331 38.5931 60.6458 40.6861 58.071 40.6861C55.4893 40.6861 53.3963 38.5931 53.3963 36.0182C53.3963 33.4377 55.4904 31.3493 58.071 31.3493ZM45.4994 31.3493C48.0799 31.3493 50.1672 33.4366 50.1672 36.0182C50.1672 38.5931 48.0799 40.6861 45.4994 40.6861C42.9165 40.6861 40.8293 38.5931 40.8293 36.0182C40.8293 33.4377 42.9165 31.3493 45.4994 31.3493ZM32.9323 31.3493C35.5072 31.3493 37.6002 33.4366 37.6002 36.0182C37.6002 38.5931 35.5072 40.6861 32.9323 40.6861C30.3518 40.6861 28.2634 38.5931 28.2634 36.0182C28.2634 33.4377 30.3518 31.3493 32.9323 31.3493ZM45.4994 11.2964C31.8088 11.2964 20.7764 21.9657 20.7764 36.0182C20.7764 42.7676 23.3284 48.7326 27.4858 53.1092L26.0105 59.7227C25.5241 61.8991 27.0336 63.3629 28.9896 62.2736L35.4478 58.6711C38.517 60.0036 41.9117 60.7401 45.4994 60.7401C59.1945 60.7401 70.2201 50.0776 70.2201 36.0182C70.2201 21.9657 59.1945 11.2964 45.4994 11.2964Z" fill="#FF9900"/>
</svg>