<svg xmlns="http://www.w3.org/2000/svg" width="46" height="47" viewBox="0 0 46 47" fill="none">
  <g clip-path="url(#clip0_37_192)">
    <path d="M35.3234 12.5736C35.3234 5.88609 30.0017 0.446045 23.4596 0.446045C16.9175 0.446045 11.5957 5.88609 11.5957 12.5736C11.5957 19.261 16.9175 24.7011 23.4596 24.7011C30.0017 24.7011 35.3234 19.261 35.3234 12.5736ZM18.4352 19.6953L19.3878 14.021L15.3546 10.0035L20.9274 9.17318L23.4209 4.01216L25.9131 9.17318L31.4884 10.0023L27.454 14.021L28.4066 19.6953L23.4209 17.0161L18.4352 19.6953Z" fill="#FF9900"/>
    <path d="M22.0503 46.446V35.4778C22.0503 33.6671 21.3281 31.9104 20.0703 30.6589C19.8048 30.3951 16.1327 26.748 16.3984 27.0118C14.3159 24.8833 10.9398 24.8831 8.85724 27.0118C9.19014 27.3521 15.7373 34.0449 15.4655 33.7671L13.6016 35.6726L6.23181 28.139C6.23181 27.7409 6.23181 16.1008 6.23181 16.801C6.23181 13.8241 3.87108 11.411 0.958984 11.411C0.958984 11.9897 0.958984 28.3637 0.958984 28.0127C0.958984 29.3958 1.37993 30.7353 2.17534 31.8867L8.1448 40.556C8.61083 41.21 8.86814 42.0298 8.86823 42.8615V46.446H22.0503Z" fill="#FF9900"/>
    <path d="M38.0442 42.8614C38.0444 42.0297 38.3017 41.2099 38.7676 40.5559L44.7371 31.8866C45.5325 30.7352 45.9536 29.3956 45.9536 28.0126C45.9536 28.3635 45.9536 11.9896 45.9536 11.4109C43.0414 11.4109 40.6806 13.824 40.6808 16.8009C40.6808 16.1006 40.6808 27.7408 40.6808 28.1389L33.311 35.6725L31.4469 33.767C31.1751 34.0449 37.7224 27.3521 38.0552 27.0117C35.9728 24.883 32.5965 24.8832 30.5141 27.0117C30.7797 26.7479 27.1078 30.3949 26.8422 30.6588C25.5844 31.9102 24.8623 33.6669 24.8623 35.4777V46.4459H38.0442V42.8614Z" fill="#FF9900"/>
  </g>
  <defs>
    <clipPath id="clip0_37_192">
      <rect width="45" height="46" fill="white" transform="translate(0.957031 0.446045)"/>
    </clipPath>
  </defs>
</svg>