<svg xmlns="http://www.w3.org/2000/svg" width="55" height="57" viewBox="0 0 55 57" fill="none">
  <path d="M27.4532 0.670166C26.4547 0.670166 25.6445 1.4797 25.6445 2.47881V6.09599C25.6445 7.0951 26.4547 7.90463 27.4532 7.90463C28.4516 7.90463 29.2618 7.0951 29.2618 6.09599V2.47881C29.2618 1.4797 28.4516 0.670166 27.4532 0.670166Z" fill="#FF9900"/>
  <path d="M5.75004 25.9906H2.13286C1.1344 25.9906 0.324219 26.8008 0.324219 27.7992C0.324219 28.7977 1.1344 29.6079 2.13286 29.6079H5.75004C6.7485 29.6079 7.55868 28.7977 7.55868 27.7992C7.55868 26.8008 6.7485 25.9906 5.75004 25.9906Z" fill="#FF9900"/>
  <path d="M52.7735 25.9906H49.1563C48.1578 25.9906 47.3477 26.8008 47.3477 27.7992C47.3477 28.7977 48.1578 29.6079 49.1563 29.6079H52.7735C53.7719 29.6079 54.5821 28.7977 54.5821 27.7992C54.5821 26.8008 53.7719 25.9906 52.7735 25.9906Z" fill="#FF9900"/>
  <path d="M46.6371 8.61639C45.9307 7.90988 44.7861 7.91053 44.0796 8.61574L41.521 11.1733C40.8146 11.8797 40.8146 13.0248 41.521 13.7313C41.8743 14.0846 42.337 14.2613 42.7997 14.2613C43.2625 14.2613 43.7253 14.0846 44.0784 13.732L46.6371 11.1744C47.3436 10.468 47.3436 9.32291 46.6371 8.61639Z" fill="#FF9900"/>
  <path d="M13.386 11.1733L10.8274 8.61574C10.121 7.91042 8.97645 7.90999 8.27004 8.61639C7.56363 9.3228 7.56363 10.4679 8.27004 11.1744L10.8287 13.732C11.182 14.0847 11.6448 14.2613 12.1074 14.2613C12.5701 14.2613 13.033 14.0846 13.3862 13.7313C14.0924 13.0249 14.0924 11.8799 13.386 11.1733Z" fill="#FF9900"/>
  <path d="M45.5393 47.6938H9.36724C8.36845 47.6938 7.55859 48.5036 7.55859 49.5025V54.3255C7.55859 55.3242 8.36835 56.1341 9.36724 56.1341H45.5393C46.5381 56.1341 47.348 55.3244 47.348 54.3255V49.5025C47.3479 48.5036 46.5381 47.6938 45.5393 47.6938Z" fill="#FF9900"/>
  <path d="M27.4532 11.5219C18.4774 11.5219 11.1758 18.8235 11.1758 27.7993V44.0768H43.7307V27.7993C43.7307 18.8234 36.4291 11.5219 27.4532 11.5219ZM34.6877 29.6078C33.6892 29.6078 32.8791 28.7977 32.8791 27.7992C32.8791 24.8073 30.4452 22.3734 27.4532 22.3734C26.4548 22.3734 25.6446 21.5632 25.6446 20.5647C25.6446 19.5663 26.4548 18.7561 27.4532 18.7561C32.4398 18.7561 36.4962 22.8125 36.4962 27.7991C36.4962 28.7978 35.6862 29.6078 34.6877 29.6078Z" fill="#FF9900"/>
</svg>