<svg xmlns="http://www.w3.org/2000/svg" width="45" height="49" viewBox="0 0 45 49" fill="none">
  <path d="M22.5099 0.541105C22.6254 0.547152 22.7384 0.576812 22.8411 0.630324C22.8411 0.630324 32.3409 5.36886 44.1874 6.94839C44.5854 7.00342 44.8809 7.34499 44.8779 7.74675V24.5388C44.8779 34.8258 39.246 40.9278 33.6931 44.3212C28.1403 47.7146 22.5989 48.5317 22.5989 48.5317C22.5202 48.5438 22.4402 48.5438 22.3615 48.5317C22.3615 48.5317 16.8201 47.7146 11.2673 44.3212C5.71443 40.9278 0.0824928 34.8258 0.0824928 24.5388V7.74675C0.0791664 7.34499 0.375027 7.00336 0.773045 6.94839C12.6195 5.36886 22.1193 0.630324 22.1193 0.630324C22.2398 0.568044 22.3742 0.537175 22.5099 0.541105ZM22.4803 10.1433C14.5377 10.1433 8.08486 16.596 8.08486 24.5386C8.08486 32.4813 14.5377 38.9419 22.4803 38.9419C30.4229 38.9419 36.8757 32.4813 36.8757 24.5386C36.8757 16.596 30.4229 10.1433 22.4803 10.1433ZM25.6815 17.341V21.3453H29.678C30.1197 21.3437 30.4792 21.7003 30.481 22.1421V26.9431C30.4794 27.3849 30.1197 27.7416 29.678 27.7399H25.6815V31.7442C25.6799 32.1866 25.3193 32.5435 24.8769 32.541H20.0836C19.6419 32.5426 19.2824 32.186 19.2806 31.7442V27.7399H15.2826C14.8408 27.7415 14.4813 27.3849 14.4795 26.9431V22.1421C14.4811 21.7003 14.8408 21.3436 15.2826 21.3453H19.2806V17.341C19.2822 16.8993 19.6419 16.5425 20.0836 16.5442H24.9183C25.3695 16.5844 25.6818 16.9293 25.6815 17.341Z" fill="#FF9900"/>
</svg>