<svg xmlns="http://www.w3.org/2000/svg" width="48" height="49" viewBox="0 0 48 49" fill="none">
  <g clip-path="url(#clip0_37_112)">
    <path d="M38.0537 33.698C35.1432 33.698 32.7754 31.2798 32.7754 28.3074C32.7754 25.3349 35.1432 22.9167 38.0537 22.9167C40.9642 22.9167 43.332 25.3349 43.332 28.3074C43.332 31.2798 40.9642 33.698 38.0537 33.698Z" fill="#FF9900"/>
    <path d="M10.3311 33.698C7.42054 33.698 5.05273 31.2798 5.05273 28.3074C5.05273 25.3349 7.42054 22.9167 10.3311 22.9167C13.2416 22.9167 15.6094 25.3349 15.6094 28.3074C15.6094 31.2798 13.2416 33.698 10.3311 33.698Z" fill="#FF9900"/>
    <path d="M33.3721 3.97925C31.6321 3.97925 30.0678 2.99187 29.2897 1.40262L29.0959 1.00672C28.8626 0.530186 28.3858 0.229248 27.8643 0.229248H20.5205C19.9989 0.229248 19.5221 0.530186 19.2889 1.00662L19.0951 1.40244C18.317 2.99187 16.7527 3.97925 15.0127 3.97925C14.2522 3.97925 13.6357 4.60887 13.6357 5.3855V13.4102C13.6357 16.5653 14.6105 19.571 16.4546 22.1023C18.2987 24.6336 20.8377 26.4508 23.7967 27.3574C23.9258 27.397 24.0591 27.4167 24.1924 27.4167C24.3257 27.4167 24.459 27.397 24.588 27.3574C27.5471 26.4508 30.086 24.6336 31.9301 22.1023C33.7742 19.571 34.749 16.5653 34.749 13.4102V5.3855C34.749 4.60887 34.1325 3.97925 33.3721 3.97925ZM29.0606 12.1657L23.8679 17.4689C23.599 17.7435 23.2466 17.8809 22.8943 17.8809C22.542 17.8809 22.1895 17.7436 21.9207 17.4689L19.3243 14.8173C18.7866 14.2681 18.7866 13.3778 19.3243 12.8286C19.862 12.2794 20.7338 12.2794 21.2716 12.8286L22.8944 14.4858L27.1135 10.177C27.6512 9.62778 28.5231 9.62778 29.0608 10.177C29.5984 10.7262 29.5984 11.6165 29.0606 12.1657Z" fill="#FF9900"/>
    <path d="M43.6844 34.1512C42.2338 35.6093 40.245 36.5105 38.0536 36.5105C35.8587 36.5105 33.867 35.6065 32.4158 34.1442C31.6454 34.711 30.9598 35.3908 30.3838 36.162L31.1404 36.8388C33.4336 38.8902 34.7489 41.8458 34.7489 44.948V48.2293H46.3153C47.0758 48.2293 47.6923 47.5996 47.6923 46.823V42.1355C47.6923 38.8528 46.1103 35.9406 43.6844 34.1512Z" fill="#FF9900"/>
    <path d="M4.70023 34.1512C2.27432 35.9406 0.692383 38.8528 0.692383 42.1355V46.823C0.692383 47.5996 1.30889 48.2293 2.06934 48.2293H13.6357V44.948C13.6357 41.8458 14.951 38.8902 17.2443 36.8388L18.0009 36.162C17.4248 35.3908 16.7392 34.711 15.9689 34.1442C14.5176 35.6065 12.5259 36.5105 10.3311 36.5105C8.13968 36.5105 6.1509 35.6093 4.70023 34.1512Z" fill="#FF9900"/>
    <path d="M29.326 38.9546C28.0302 40.3355 26.2086 41.198 24.1924 41.198C22.1762 41.198 20.3545 40.3355 19.0587 38.9546C17.4246 40.4163 16.3896 42.5604 16.3896 44.948V48.2293H31.9951V44.948C31.9951 42.5604 30.9602 40.4163 29.326 38.9546Z" fill="#FF9900"/>
    <path d="M24.1924 38.3855C21.788 38.3855 19.832 36.3879 19.832 33.9324C19.832 31.4769 21.788 29.4792 24.1924 29.4792C26.5967 29.4792 28.5527 31.4769 28.5527 33.9324C28.5527 36.3879 26.5967 38.3855 24.1924 38.3855Z" fill="#FF9900"/>
  </g>
  <defs>
    <clipPath id="clip0_37_112">
      <rect width="47" height="48" fill="white" transform="translate(0.692383 0.229248)"/>
    </clipPath>
  </defs>
</svg>