<svg width="169" height="30" viewBox="0 0 169 30" fill="none" xmlns="http://www.w3.org/2000/svg">
<path d="M32.54 23.4256C30.7549 23.4256 29.2102 23.0394 27.9057 22.2671C26.6184 21.4775 25.6229 20.3876 24.9192 18.9973C24.2327 17.5899 23.8894 15.9679 23.8894 14.1314C23.8894 12.2777 24.2327 10.6557 24.9192 9.26542C25.6229 7.85798 26.6184 6.75949 27.9057 5.96995C29.2102 5.18041 30.7549 4.78564 32.54 4.78564C34.6855 4.78564 36.4362 5.31772 37.7921 6.38188C39.1481 7.42888 40.0063 8.91356 40.3667 10.8359H36.9683C36.728 9.82324 36.2388 9.02512 35.5008 8.44155C34.7627 7.85798 33.7672 7.56619 32.5142 7.56619C31.3814 7.56619 30.4031 7.83223 29.5792 8.36431C28.7725 8.87923 28.146 9.63444 27.6998 10.6299C27.2707 11.6083 27.0561 12.7754 27.0561 14.1314C27.0561 15.4873 27.2707 16.6545 27.6998 17.6328C28.146 18.594 28.7725 19.3406 29.5792 19.8727C30.4031 20.3876 31.3814 20.6451 32.5142 20.6451C33.7672 20.6451 34.7627 20.379 35.5008 19.847C36.2388 19.2977 36.728 18.5425 36.9683 17.5813H40.3667C40.0235 19.4007 39.1653 20.8339 37.7921 21.8809C36.4362 22.9107 34.6855 23.4256 32.54 23.4256ZM42.257 23.1167V10.1408H45.0118L45.295 12.5609C45.604 11.9945 45.9902 11.5139 46.4536 11.1191C46.917 10.7072 47.4577 10.3897 48.0756 10.1665C48.7107 9.94339 49.4058 9.83183 50.161 9.83183V13.1015H49.0797C48.5648 13.1015 48.0756 13.1702 47.6122 13.3075C47.1487 13.4277 46.7454 13.6336 46.4021 13.9254C46.076 14.2 45.8185 14.5862 45.6297 15.084C45.4409 15.5646 45.3465 16.1739 45.3465 16.9119V23.1167H42.257ZM56.2746 23.4256C55.2276 23.4256 54.3265 23.2197 53.5713 22.8077C52.8333 22.3786 52.2669 21.7436 51.8721 20.9025C51.4773 20.0443 51.28 18.9888 51.28 17.7358V10.1408H54.3695V17.4269C54.3695 18.5425 54.6012 19.3921 55.0646 19.9757C55.5452 20.5421 56.2661 20.8253 57.2272 20.8253C57.8451 20.8253 58.3944 20.6794 58.875 20.3876C59.3727 20.0958 59.7589 19.6753 60.0335 19.1261C60.3253 18.5597 60.4712 17.8731 60.4712 17.0664V10.1408H63.5607V23.1167H60.8317L60.5999 20.954C60.2052 21.7092 59.6302 22.31 58.875 22.7562C58.1369 23.2025 57.2702 23.4256 56.2746 23.4256ZM66.0971 23.1167V10.1408H69.1866V23.1167H66.0971ZM67.6418 8.08111C67.0754 8.08111 66.6034 7.90947 66.2258 7.56619C65.8654 7.20575 65.6852 6.76807 65.6852 6.25315C65.6852 5.72107 65.8654 5.29197 66.2258 4.96586C66.6034 4.62258 67.0754 4.45094 67.6418 4.45094C68.2082 4.45094 68.6717 4.62258 69.0321 4.96586C69.4097 5.29197 69.5985 5.72107 69.5985 6.25315C69.5985 6.76807 69.4097 7.20575 69.0321 7.56619C68.6717 7.90947 68.2082 8.08111 67.6418 8.08111ZM76.9019 23.4256C75.7519 23.4256 74.7478 23.2454 73.8896 22.885C73.0486 22.5074 72.3792 21.9924 71.8815 21.3402C71.4009 20.6708 71.1177 19.907 71.0318 19.0488H74.1213C74.2072 19.4093 74.3616 19.744 74.5848 20.0529C74.8079 20.3447 75.1083 20.5764 75.4859 20.7481C75.8806 20.9197 76.3441 21.0055 76.8762 21.0055C77.3911 21.0055 77.8116 20.9369 78.1377 20.7996C78.4638 20.6451 78.7041 20.4477 78.8586 20.2074C79.0131 19.9671 79.0903 19.7096 79.0903 19.435C79.0903 19.0231 78.9787 18.7056 78.7556 18.4824C78.5325 18.2593 78.2064 18.0877 77.7773 17.9675C77.3653 17.8302 76.8676 17.7015 76.284 17.5813C75.6661 17.4612 75.0654 17.3153 74.4818 17.1436C73.9154 16.9548 73.4005 16.7231 72.937 16.4485C72.4908 16.1739 72.1303 15.822 71.8557 15.3929C71.5983 14.9638 71.4695 14.4403 71.4695 13.8224C71.4695 13.0672 71.6669 12.3892 72.0617 11.7885C72.4736 11.1878 73.0572 10.7158 73.8124 10.3725C74.5848 10.012 75.503 9.83183 76.5672 9.83183C78.0776 9.83183 79.2791 10.1837 80.1716 10.8874C81.0813 11.574 81.6134 12.5437 81.7679 13.7967H78.8328C78.747 13.3161 78.5067 12.9471 78.112 12.6896C77.7172 12.415 77.1937 12.2777 76.5415 12.2777C75.8721 12.2777 75.3571 12.4064 74.9967 12.6639C74.6534 12.9042 74.4818 13.2303 74.4818 13.6422C74.4818 13.9168 74.5848 14.1571 74.7907 14.3631C75.0139 14.5691 75.3314 14.7493 75.7433 14.9038C76.1553 15.0411 76.6616 15.1784 77.2623 15.3157C78.2235 15.5045 79.0731 15.7276 79.8112 15.9851C80.5492 16.2425 81.1328 16.6201 81.5619 17.1179C81.991 17.6157 82.2055 18.3194 82.2055 19.2291C82.2227 20.0529 82.0082 20.7824 81.5619 21.4175C81.1328 22.0525 80.5235 22.5503 79.7339 22.9107C78.9444 23.254 78.0004 23.4256 76.9019 23.4256ZM90.2495 23.4256C88.9622 23.4256 87.8294 23.151 86.8511 22.6018C85.8727 22.0354 85.1089 21.2458 84.5597 20.2331C84.0104 19.2205 83.7358 18.0533 83.7358 16.7317C83.7358 15.3586 84.0019 14.1571 84.5339 13.1273C85.0832 12.0975 85.847 11.2908 86.8253 10.7072C87.8208 10.1236 88.9708 9.83183 90.2753 9.83183C91.5454 9.83183 92.6525 10.115 93.5965 10.6814C94.5405 11.2478 95.27 12.0116 95.7849 12.9728C96.2998 13.9168 96.5572 14.981 96.5572 16.1653C96.5572 16.3369 96.5572 16.5257 96.5572 16.7317C96.5572 16.9377 96.5401 17.1522 96.5058 17.3754H85.95V15.3929H93.442C93.4077 14.4489 93.0901 13.7109 92.4894 13.1788C91.8887 12.6295 91.142 12.3549 90.2495 12.3549C89.6144 12.3549 89.0309 12.5008 88.4988 12.7926C87.9667 13.0844 87.5462 13.5221 87.2372 14.1056C86.9283 14.672 86.7738 15.3929 86.7738 16.2683V17.0149C86.7738 17.8216 86.9197 18.5168 87.2115 19.1003C87.5205 19.6839 87.9324 20.1302 88.4473 20.4391C88.9794 20.7309 89.5715 20.8768 90.2238 20.8768C90.9447 20.8768 91.5368 20.7223 92.0002 20.4134C92.4808 20.1044 92.8327 19.6925 93.0558 19.1776H96.1968C95.9565 19.9843 95.5617 20.7137 95.0125 21.366C94.4633 22.001 93.7853 22.5074 92.9786 22.885C92.1719 23.2454 91.2622 23.4256 90.2495 23.4256ZM98.483 23.1167V5.09459H109.991V7.59194H101.572V12.8698H108.447V15.3157H101.572V23.1167H98.483ZM111.505 23.1167V10.1408H114.26L114.543 12.5609C114.852 11.9945 115.238 11.5139 115.702 11.1191C116.165 10.7072 116.706 10.3897 117.324 10.1665C117.959 9.94339 118.654 9.83183 119.409 9.83183V13.1015H118.328C117.813 13.1015 117.324 13.1702 116.86 13.3075C116.397 13.4277 115.994 13.6336 115.65 13.9254C115.324 14.2 115.067 14.5862 114.878 15.084C114.689 15.5646 114.595 16.1739 114.595 16.9119V23.1167H111.505ZM126.508 23.4256C125.221 23.4256 124.088 23.151 123.109 22.6018C122.131 22.0354 121.367 21.2458 120.818 20.2331C120.269 19.2205 119.994 18.0533 119.994 16.7317C119.994 15.3586 120.26 14.1571 120.792 13.1273C121.342 12.0975 122.105 11.2908 123.084 10.7072C124.079 10.1236 125.229 9.83183 126.534 9.83183C127.804 9.83183 128.911 10.115 129.855 10.6814C130.799 11.2478 131.528 12.0116 132.043 12.9728C132.558 13.9168 132.816 14.981 132.816 16.1653C132.816 16.3369 132.816 16.5257 132.816 16.7317C132.816 16.9377 132.798 17.1522 132.764 17.3754H122.208V15.3929H129.7C129.666 14.4489 129.349 13.7109 128.748 13.1788C128.147 12.6295 127.4 12.3549 126.508 12.3549C125.873 12.3549 125.289 12.5008 124.757 12.7926C124.225 13.0844 123.805 13.5221 123.496 14.1056C123.187 14.672 123.032 15.3929 123.032 16.2683V17.0149C123.032 17.8216 123.178 18.5168 123.47 19.1003C123.779 19.6839 124.191 20.1302 124.706 20.4391C125.238 20.7309 125.83 20.8768 126.482 20.8768C127.203 20.8768 127.795 20.7223 128.259 20.4134C128.739 20.1044 129.091 19.6925 129.314 19.1776H132.455C132.215 19.9843 131.82 20.7137 131.271 21.366C130.722 22.001 130.044 22.5074 129.237 22.885C128.43 23.2454 127.521 23.4256 126.508 23.4256ZM140.714 23.4256C139.427 23.4256 138.294 23.151 137.316 22.6018C136.338 22.0354 135.574 21.2458 135.025 20.2331C134.475 19.2205 134.201 18.0533 134.201 16.7317C134.201 15.3586 134.467 14.1571 134.999 13.1273C135.548 12.0975 136.312 11.2908 137.29 10.7072C138.286 10.1236 139.436 9.83183 140.74 9.83183C142.01 9.83183 143.117 10.115 144.061 10.6814C145.005 11.2478 145.735 12.0116 146.25 12.9728C146.765 13.9168 147.022 14.981 147.022 16.1653C147.022 16.3369 147.022 16.5257 147.022 16.7317C147.022 16.9377 147.005 17.1522 146.971 17.3754H136.415V15.3929H143.907C143.873 14.4489 143.555 13.7109 142.954 13.1788C142.354 12.6295 141.607 12.3549 140.714 12.3549C140.079 12.3549 139.496 12.5008 138.964 12.7926C138.432 13.0844 138.011 13.5221 137.702 14.1056C137.393 14.672 137.239 15.3929 137.239 16.2683V17.0149C137.239 17.8216 137.385 18.5168 137.676 19.1003C137.985 19.6839 138.397 20.1302 138.912 20.4391C139.444 20.7309 140.036 20.8768 140.689 20.8768C141.41 20.8768 142.002 20.7223 142.465 20.4134C142.946 20.1044 143.298 19.6925 143.521 19.1776H146.662C146.421 19.9843 146.027 20.7137 145.477 21.366C144.928 22.001 144.25 22.5074 143.443 22.885C142.637 23.2454 141.727 23.4256 140.714 23.4256ZM148.845 23.1167V4.57967H151.934V23.1167H148.845ZM155.923 28.7808L159.089 21.6749H158.317L153.142 10.1408H156.515L160.377 18.9459L164.032 10.1408H167.302L159.192 28.7808H155.923Z" fill="url(#paint0_linear_206_25)"/>
<path fill-rule="evenodd" clip-rule="evenodd" d="M0.892897 25.8632C4.54215 22.3847 10.802 16.252 8.16107 2.23892C9.21579 3.74566 13.0273 10.9827 14.0634 13.4135C14.0624 13.4207 14.0614 13.4281 14.0604 13.4357C13.9368 14.3447 13.4916 17.619 8.16107 20.1878V21.3688C10.0447 20.6803 14.0143 18.4686 14.8237 15.1299C14.9608 15.3293 16.3008 17.9908 17.2648 20.991C15.4914 21.0301 13.3258 21.3587 10.8883 22.4462C8.90016 23.3332 6.00301 24.4336 3.37228 25.2138C2.49697 25.4734 1.65668 25.6959 0.892897 25.8632ZM0.339844 26.9944H7.75109H18.204C18.3837 25.5677 18.0677 23.7596 17.5663 21.9873C15.8387 21.9947 13.7139 22.2806 11.2957 23.3594C9.26968 24.2634 6.33146 25.3793 3.65662 26.1726C2.47404 26.5233 1.33318 26.8139 0.339844 26.9944Z" fill="#0D1F34"/>
<defs>
<linearGradient id="paint0_linear_206_25" x1="38.1271" y1="3.77443" x2="124.086" y2="80.6167" gradientUnits="userSpaceOnUse">
<stop stop-color="#0D1F34"/>
<stop offset="1" stop-color="#0F2035" stop-opacity="0.47"/>
</linearGradient>
</defs>
</svg>
