<svg width="169" height="30" viewBox="0 0 169 30" fill="none" xmlns="http://www.w3.org/2000/svg">
<path d="M32.8159 24.2623C31.0309 24.2623 29.4861 23.8761 28.1817 23.1037C26.8944 22.3142 25.8989 21.2243 25.1952 19.834C24.5086 18.4265 24.1653 16.8046 24.1653 14.968C24.1653 13.1143 24.5086 11.4923 25.1952 10.1021C25.8989 8.69462 26.8944 7.59613 28.1817 6.80659C29.4861 6.01705 31.0309 5.62228 32.8159 5.62228C34.9614 5.62228 36.7121 6.15436 38.0681 7.21852C39.424 8.26552 40.2822 9.7502 40.6427 11.6726H37.2442C37.0039 10.6599 36.5148 9.86176 35.7767 9.27819C35.0387 8.69462 34.0432 8.40283 32.7902 8.40283C31.6574 8.40283 30.679 8.66887 29.8552 9.20095C29.0485 9.71587 28.422 10.4711 27.9757 11.4666C27.5466 12.4449 27.3321 13.6121 27.3321 14.968C27.3321 16.324 27.5466 17.4911 27.9757 18.4695C28.422 19.4306 29.0485 20.1773 29.8552 20.7093C30.679 21.2243 31.6574 21.4817 32.7902 21.4817C34.0432 21.4817 35.0387 21.2157 35.7767 20.6836C36.5148 20.1344 37.0039 19.3791 37.2442 18.418H40.6427C40.2994 20.2373 39.4412 21.6705 38.0681 22.7175C36.7121 23.7474 34.9614 24.2623 32.8159 24.2623ZM42.533 23.9533V10.9774H45.2878L45.571 13.3975C45.8799 12.8311 46.2661 12.3505 46.7296 11.9558C47.193 11.5438 47.7336 11.2263 48.3515 11.0032C48.9866 10.78 49.6817 10.6685 50.437 10.6685V13.9382H49.3556C48.8407 13.9382 48.3515 14.0068 47.8881 14.1442C47.4247 14.2643 47.0213 14.4703 46.6781 14.7621C46.3519 15.0367 46.0945 15.4229 45.9057 15.9206C45.7169 16.4012 45.6225 17.0105 45.6225 17.7486V23.9533H42.533ZM56.5506 24.2623C55.5036 24.2623 54.6025 24.0563 53.8473 23.6444C53.1092 23.2153 52.5428 22.5802 52.148 21.7392C51.7533 20.881 51.5559 19.8254 51.5559 18.5724V10.9774H54.6454V18.2635C54.6454 19.3791 54.8771 20.2288 55.3405 20.8123C55.8211 21.3787 56.542 21.6619 57.5032 21.6619C58.1211 21.6619 58.6703 21.516 59.1509 21.2243C59.6487 20.9325 60.0349 20.512 60.3095 19.9627C60.6013 19.3963 60.7472 18.7098 60.7472 17.903V10.9774H63.8367V23.9533H61.1076L60.8759 21.7907C60.4811 22.5459 59.9061 23.1466 59.1509 23.5929C58.4129 24.0391 57.5461 24.2623 56.5506 24.2623ZM66.373 23.9533V10.9774H69.4625V23.9533H66.373ZM67.9178 8.91775C67.3514 8.91775 66.8794 8.74611 66.5018 8.40283C66.1413 8.04239 65.9611 7.60471 65.9611 7.08979C65.9611 6.55771 66.1413 6.12861 66.5018 5.8025C66.8794 5.45922 67.3514 5.28758 67.9178 5.28758C68.4842 5.28758 68.9476 5.45922 69.3081 5.8025C69.6857 6.12861 69.8745 6.55771 69.8745 7.08979C69.8745 7.60471 69.6857 8.04239 69.3081 8.40283C68.9476 8.74611 68.4842 8.91775 67.9178 8.91775ZM77.1778 24.2623C76.0279 24.2623 75.0238 24.0821 74.1656 23.7216C73.3245 23.344 72.6552 22.8291 72.1574 22.1769C71.6768 21.5075 71.3936 20.7437 71.3078 19.8855H74.3973C74.4831 20.2459 74.6376 20.5806 74.8607 20.8896C75.0838 21.1814 75.3842 21.4131 75.7618 21.5847C76.1566 21.7563 76.62 21.8422 77.1521 21.8422C77.667 21.8422 78.0875 21.7735 78.4136 21.6362C78.7398 21.4817 78.98 21.2843 79.1345 21.044C79.289 20.8037 79.3662 20.5463 79.3662 20.2717C79.3662 19.8597 79.2547 19.5422 79.0315 19.3191C78.8084 19.0959 78.4823 18.9243 78.0532 18.8042C77.6413 18.6668 77.1435 18.5381 76.5599 18.418C75.942 18.2978 75.3413 18.1519 74.7577 17.9803C74.1913 17.7915 73.6764 17.5598 73.213 17.2851C72.7667 17.0105 72.4063 16.6587 72.1317 16.2296C71.8742 15.8005 71.7455 15.277 71.7455 14.6591C71.7455 13.9039 71.9428 13.2259 72.3376 12.6251C72.7496 12.0244 73.3331 11.5524 74.0883 11.2091C74.8607 10.8487 75.779 10.6685 76.8431 10.6685C78.3536 10.6685 79.555 11.0203 80.4476 11.724C81.3572 12.4106 81.8893 13.3804 82.0438 14.6333H79.1088C79.023 14.1527 78.7827 13.7837 78.3879 13.5263C77.9931 13.2516 77.4696 13.1143 76.8174 13.1143C76.148 13.1143 75.6331 13.243 75.2726 13.5005C74.9294 13.7408 74.7577 14.0669 74.7577 14.4789C74.7577 14.7535 74.8607 14.9938 75.0667 15.1997C75.2898 15.4057 75.6073 15.5859 76.0193 15.7404C76.4312 15.8777 76.9375 16.015 77.5383 16.1523C78.4995 16.3411 79.3491 16.5643 80.0871 16.8217C80.8252 17.0792 81.4087 17.4568 81.8378 17.9545C82.2669 18.4523 82.4815 19.156 82.4815 20.0657C82.4986 20.8896 82.2841 21.619 81.8378 22.2541C81.4087 22.8892 80.7994 23.3869 80.0099 23.7474C79.2203 24.0906 78.2763 24.2623 77.1778 24.2623ZM90.5255 24.2623C89.2382 24.2623 88.1053 23.9877 87.127 23.4384C86.1487 22.872 85.3849 22.0825 84.8356 21.0698C84.2864 20.0571 84.0118 18.89 84.0118 17.5684C84.0118 16.1952 84.2778 14.9938 84.8099 13.9639C85.3591 12.9341 86.1229 12.1274 87.1013 11.5438C88.0968 10.9603 89.2467 10.6685 90.5512 10.6685C91.8213 10.6685 92.9284 10.9517 93.8724 11.5181C94.8164 12.0845 95.5459 12.8483 96.0608 13.8095C96.5757 14.7535 96.8332 15.8176 96.8332 17.0019C96.8332 17.1736 96.8332 17.3624 96.8332 17.5684C96.8332 17.7743 96.816 17.9889 96.7817 18.212H86.2259V16.2296H93.7179C93.6836 15.2856 93.3661 14.5475 92.7653 14.0154C92.1646 13.4662 91.418 13.1916 90.5255 13.1916C89.8904 13.1916 89.3068 13.3375 88.7747 13.6292C88.2427 13.921 87.8221 14.3587 87.5132 14.9423C87.2042 15.5087 87.0498 16.2296 87.0498 17.1049V17.8516C87.0498 18.6583 87.1957 19.3534 87.4874 19.937C87.7964 20.5205 88.2083 20.9668 88.7232 21.2758C89.2553 21.5675 89.8475 21.7134 90.4997 21.7134C91.2206 21.7134 91.8127 21.559 92.2762 21.25C92.7568 20.9411 93.1086 20.5291 93.3318 20.0142H96.4727C96.2324 20.8209 95.8377 21.5504 95.2884 22.2026C94.7392 22.8377 94.0612 23.344 93.2545 23.7216C92.4478 24.0821 91.5381 24.2623 90.5255 24.2623ZM98.7589 23.9533V5.93123H110.267V8.42858H101.848V13.7065H108.723V16.1523H101.848V23.9533H98.7589ZM111.781 23.9533V10.9774H114.536L114.819 13.3975C115.128 12.8311 115.514 12.3505 115.978 11.9558C116.441 11.5438 116.982 11.2263 117.6 11.0032C118.235 10.78 118.93 10.6685 119.685 10.6685V13.9382H118.604C118.089 13.9382 117.6 14.0068 117.136 14.1442C116.673 14.2643 116.27 14.4703 115.926 14.7621C115.6 15.0367 115.343 15.4229 115.154 15.9206C114.965 16.4012 114.871 17.0105 114.871 17.7486V23.9533H111.781ZM126.784 24.2623C125.497 24.2623 124.364 23.9877 123.385 23.4384C122.407 22.872 121.643 22.0825 121.094 21.0698C120.545 20.0571 120.27 18.89 120.27 17.5684C120.27 16.1952 120.536 14.9938 121.068 13.9639C121.618 12.9341 122.381 12.1274 123.36 11.5438C124.355 10.9603 125.505 10.6685 126.81 10.6685C128.08 10.6685 129.187 10.9517 130.131 11.5181C131.075 12.0845 131.804 12.8483 132.319 13.8095C132.834 14.7535 133.092 15.8176 133.092 17.0019C133.092 17.1736 133.092 17.3624 133.092 17.5684C133.092 17.7743 133.074 17.9889 133.04 18.212H122.484V16.2296H129.976C129.942 15.2856 129.624 14.5475 129.024 14.0154C128.423 13.4662 127.676 13.1916 126.784 13.1916C126.149 13.1916 125.565 13.3375 125.033 13.6292C124.501 13.921 124.081 14.3587 123.772 14.9423C123.463 15.5087 123.308 16.2296 123.308 17.1049V17.8516C123.308 18.6583 123.454 19.3534 123.746 19.937C124.055 20.5205 124.467 20.9668 124.982 21.2758C125.514 21.5675 126.106 21.7134 126.758 21.7134C127.479 21.7134 128.071 21.559 128.535 21.25C129.015 20.9411 129.367 20.5291 129.59 20.0142H132.731C132.491 20.8209 132.096 21.5504 131.547 22.2026C130.998 22.8377 130.32 23.344 129.513 23.7216C128.706 24.0821 127.797 24.2623 126.784 24.2623ZM140.99 24.2623C139.703 24.2623 138.57 23.9877 137.592 23.4384C136.614 22.872 135.85 22.0825 135.3 21.0698C134.751 20.0571 134.477 18.89 134.477 17.5684C134.477 16.1952 134.743 14.9938 135.275 13.9639C135.824 12.9341 136.588 12.1274 137.566 11.5438C138.562 10.9603 139.712 10.6685 141.016 10.6685C142.286 10.6685 143.393 10.9517 144.337 11.5181C145.281 12.0845 146.011 12.8483 146.526 13.8095C147.041 14.7535 147.298 15.8176 147.298 17.0019C147.298 17.1736 147.298 17.3624 147.298 17.5684C147.298 17.7743 147.281 17.9889 147.247 18.212H136.691V16.2296H144.183C144.148 15.2856 143.831 14.5475 143.23 14.0154C142.629 13.4662 141.883 13.1916 140.99 13.1916C140.355 13.1916 139.772 13.3375 139.24 13.6292C138.708 13.921 138.287 14.3587 137.978 14.9423C137.669 15.5087 137.515 16.2296 137.515 17.1049V17.8516C137.515 18.6583 137.661 19.3534 137.952 19.937C138.261 20.5205 138.673 20.9668 139.188 21.2758C139.72 21.5675 140.312 21.7134 140.965 21.7134C141.685 21.7134 142.278 21.559 142.741 21.25C143.222 20.9411 143.573 20.5291 143.797 20.0142H146.938C146.697 20.8209 146.303 21.5504 145.753 22.2026C145.204 22.8377 144.526 23.344 143.719 23.7216C142.913 24.0821 142.003 24.2623 140.99 24.2623ZM149.121 23.9533V5.41631H152.21V23.9533H149.121ZM156.198 29.6174L159.365 22.5116H158.593L153.418 10.9774H156.791L160.653 19.7825L164.308 10.9774H167.578L159.468 29.6174H156.198Z" fill="url(#paint0_linear_2301_2)"/>
<path fill-rule="evenodd" clip-rule="evenodd" d="M1.16853 26.6998C4.81778 23.2214 11.0776 17.0886 8.43671 3.07556C9.49142 4.5823 13.303 11.8194 14.339 14.2501C14.338 14.2574 14.337 14.2648 14.336 14.2723C14.2124 15.1813 13.7672 18.4556 8.43671 21.0244V22.2055C10.3203 21.5169 14.29 19.3052 15.0993 15.9665C15.2365 16.166 16.5764 18.8275 17.5405 21.8277C15.767 21.8667 13.6015 22.1953 11.1639 23.2828C9.17579 24.1699 6.27865 25.2703 3.64792 26.0505C2.77261 26.3101 1.93231 26.5325 1.16853 26.6998ZM0.615479 27.8311H8.02672H18.4797C18.6593 26.4043 18.3434 24.5962 17.8419 22.8239C16.1144 22.8313 13.9895 23.1172 11.5714 24.1961C9.54531 25.1 6.60709 26.2159 3.93225 27.0092C2.74968 27.3599 1.60882 27.6505 0.615479 27.8311Z" fill="white"/>
<defs>
<linearGradient id="paint0_linear_2301_2" x1="38.4031" y1="4.61107" x2="124.362" y2="81.4533" gradientUnits="userSpaceOnUse">
<stop stop-color="white"/>
<stop offset="1" stop-color="white" stop-opacity="0.75"/>
</linearGradient>
</defs>
</svg>
