<svg width="64" height="60" viewBox="0 0 64 60" fill="none" xmlns="http://www.w3.org/2000/svg">
<path fill-rule="evenodd" clip-rule="evenodd" d="M38.5657 1.21999C41.6168 1.48139 44.999 2.01683 47.8302 3.16574C49.2437 3.73935 49.9245 5.35022 49.3509 6.76372C48.7773 8.17722 47.1665 8.85809 45.753 8.28448C43.6835 7.4447 40.9474 6.96843 38.0941 6.72398C35.2779 6.48269 32.5404 6.48116 30.5339 6.49838C23.3759 6.5598 17.1751 9.89377 11.4786 16.9134C7.31683 22.0418 4.91091 30.1254 5.90889 37.7617C6.38371 41.3949 8.36524 44.3958 10.7504 46.7939C14.2808 50.3435 18.5356 51.9895 23.2384 52.9806C27.5535 53.89 32.0153 53.9174 36.3391 53.0726C38.6988 52.6116 40.8888 52.129 42.9387 51.3228C44.9736 50.5223 46.9391 49.2085 48.9337 47.5298C51.873 45.0561 54.6636 42.1245 56.4424 38.5188C58.3059 34.7414 59.15 29.9107 57.8007 26.1285C56.7665 23.2296 54.5515 21.0396 52.3308 19.9159C50.687 19.0841 48.9419 18.581 46.9361 18.0027C46.6357 17.9162 46.3296 17.8279 46.017 17.7366C43.2816 16.9375 40.6808 16.2602 38.1029 15.9641C33.5908 15.4459 29.3121 15.5858 25.3615 17.2237C24.12 17.7384 23.1658 18.2811 22.2282 19.1508C20.12 21.1064 18.3552 22.9152 17.2658 25.365C16.1869 27.791 15.6313 30.6245 16.0115 33.2334C16.5401 36.8612 18.6217 39.2887 21.2286 41.0944C24.1924 43.1473 27.3554 44.2283 30.4145 44.1223C32.6538 44.0447 34.8509 43.6115 37.0428 42.8201C40.037 41.739 42.856 40.6369 45.3305 38.9795C46.5155 38.1857 47.6228 37.1584 48.6544 35.8892C49.5063 34.8412 50.0139 34.071 50.1936 33.2031C50.7332 30.5971 49.8551 28.7498 48.5866 27.8737C47.6332 27.2153 46.077 26.5941 44.1793 26.0248C42.7971 25.6101 41.4239 25.275 40.1683 24.9687C39.728 24.8612 39.3021 24.7573 38.8953 24.6547C33.3836 23.2646 29.1407 25.7439 27.6061 28.4292C26.2188 30.8567 26.7685 31.7579 26.9522 32.0011C27.3364 32.5097 28.3848 33.0758 30.0131 33.1118C31.6207 33.1474 32.8885 32.6371 33.4206 32.1155C33.6321 31.9082 33.6897 31.7462 33.7031 31.5896C33.7192 31.4031 33.6919 30.9322 33.2119 30.115C32.4392 28.7997 32.8791 27.1071 34.1944 26.3344C35.5097 25.5618 37.2023 26.0016 37.975 27.3169C38.8729 28.8454 39.3454 30.4534 39.207 32.0629C39.066 33.7024 38.3148 35.0536 37.2874 36.0606C35.3418 37.9677 32.4109 38.6904 29.8909 38.6346C27.373 38.5789 24.3468 37.717 22.5443 35.3309C20.5413 32.6793 20.7921 29.2192 22.8099 25.6883C25.6677 20.6875 32.5178 17.3491 40.2463 19.2983C40.5807 19.3826 40.9576 19.4746 41.3654 19.574C42.6462 19.8864 44.2321 20.2732 45.7667 20.7336C47.7591 21.3313 50.02 22.1502 51.7258 23.3283C55.1827 25.7157 56.496 30.0104 55.603 34.3232C55.1319 36.5986 53.8465 38.2597 52.9411 39.3736C51.6087 41.0128 50.1037 42.4312 48.4047 43.5692C45.3142 45.6393 41.9218 46.9316 38.9188 48.0159C36.2111 48.9936 33.4466 49.5447 30.6058 49.6431C26.0951 49.7995 21.7837 48.1988 18.0831 45.6355C14.6624 43.2661 11.3622 39.6377 10.5451 34.03C9.98214 30.1668 10.8163 26.2729 12.2182 23.1204C13.8012 19.5607 16.3149 17.1012 18.4713 15.1009C20.0258 13.6588 21.5992 12.8034 23.2458 12.1207C28.4221 9.97467 33.7686 9.90587 38.7331 10.476C41.8012 10.8284 44.776 11.619 47.5661 12.4341C47.8421 12.5147 48.1267 12.5963 48.4184 12.6799C50.3871 13.2441 52.6786 13.9008 54.8249 14.9868C58.1747 16.6819 61.4455 19.9045 63.0037 24.2723C65.0276 29.9455 63.6537 36.3875 61.3965 40.9628C59.1417 45.5335 55.714 49.0437 52.4908 51.7563C50.246 53.6455 47.7606 55.3622 44.9607 56.4635C42.4048 57.4689 39.7847 58.0281 37.3984 58.4943C32.3523 59.4801 27.1429 59.4489 22.0993 58.386C16.8431 57.2783 11.4172 55.2978 6.83372 50.6895C3.94964 47.7898 1.11814 43.733 0.431312 38.4776C-0.75578 29.3942 2.03766 19.7805 7.18913 13.4325C13.6536 5.46654 21.2945 1.0533 30.4865 0.974425C32.5246 0.956936 35.4776 0.95541 38.5657 1.21999Z" fill="#FF7BAB"/>
</svg>
